# xmcd CD database file
#
# Track frame offsets:
#	150
#	21300
#	47925
#
# Disc length: 919 seconds
#
# Revision: 1
# Processed by: cddbd v1.5.1PL0 Copyright (c) Steve Scherf et al.
# Submitted via: freeDBTagger 0.5
#
DISCID=22039503
DTITLE=角松敏生 - Realize
DYEAR=1998
DGENRE=rock
TTITLE0=Realize
TTITLE1=Splendid Love
TTITLE2=Realize (Instrumental)
EXTD=
EXTT0=
EXTT1=
EXTT2=
PLAYORDER=
